<svg class="svg" viewBox="0 0 25 25" xmlns="http://www.w3.org/2000/svg">
    <path d="M12.4285 6.57324C9.09516 6.57324 6.33325 9.28753 6.33325 12.6685C6.33325 16.0494 9.04754 18.7637 12.4285 18.7637C15.8094 18.7637 18.5237 16.0018 18.5237 12.6685C18.5237 9.33515 15.7618 6.57324 12.4285 6.57324ZM12.4285 16.5732C10.2856 16.5732 8.52373 14.8113 8.52373 12.6685C8.52373 10.5256 10.2856 8.76372 12.4285 8.76372C14.5713 8.76372 16.3333 10.5256 16.3333 12.6685C16.3333 14.8113 14.5713 16.5732 12.4285 16.5732Z"></path>
    <path d="M18.7619 7.81171C19.5246 7.81171 20.1429 7.19344 20.1429 6.43076C20.1429 5.66808 19.5246 5.0498 18.7619 5.0498C17.9993 5.0498 17.381 5.66808 17.381 6.43076C17.381 7.19344 17.9993 7.81171 18.7619 7.81171Z"></path>
    <path d="M22.3333 2.85912C21.0952 1.5734 19.3333 0.906738 17.3333 0.906738H7.52378C3.38092 0.906738 0.619019 3.66864 0.619019 7.8115V17.5734C0.619019 19.621 1.28569 21.3829 2.61902 22.6686C3.90473 23.9067 5.61902 24.5258 7.5714 24.5258H17.2857C19.3333 24.5258 21.0476 23.8591 22.2857 22.6686C23.5714 21.4305 24.2381 19.6686 24.2381 17.621V7.8115C24.2381 5.8115 23.5714 4.09721 22.3333 2.85912ZM22.1428 17.621C22.1428 19.0972 21.619 20.2877 20.7619 21.0972C19.9047 21.9067 18.7143 22.3353 17.2857 22.3353H7.5714C6.14283 22.3353 4.95235 21.9067 4.09521 21.0972C3.23807 20.2401 2.80949 19.0496 2.80949 17.5734V7.8115C2.80949 6.38293 3.23807 5.19245 4.09521 4.33531C4.90473 3.52579 6.14283 3.09721 7.5714 3.09721H17.3809C18.8095 3.09721 20 3.52579 20.8571 4.38293C21.6666 5.24007 22.1428 6.43055 22.1428 7.8115V17.621Z"></path>
</svg>
