<svg class="svg" viewBox="0 0 23 23" xmlns="http://www.w3.org/2000/svg">
    <path d="M4.82467 22.2668H0.0791016V6.44824H4.82467V22.2668ZM22.2251 22.2668H17.4795V13.8165C17.4795 11.6146 16.6949 10.5184 15.14 10.5184C13.9077 10.5184 13.1262 11.1321 12.7339 12.3612C12.7339 14.3575 12.7339 22.2668 12.7339 22.2668H7.98838C7.98838 22.2668 8.05166 8.0301 7.98838 6.44824H11.7342L12.0237 9.61195H12.1218C13.0946 8.0301 14.6496 6.9576 16.7819 6.9576C18.4033 6.9576 19.7147 7.40843 20.716 8.54104C21.7236 9.67523 22.2251 11.197 22.2251 13.3341V22.2668Z"></path>
    <path d="M2.45188 4.86666C3.80601 4.86666 4.90375 3.80433 4.90375 2.49388C4.90375 1.18343 3.80601 0.121094 2.45188 0.121094C1.09774 0.121094 0 1.18343 0 2.49388C0 3.80433 1.09774 4.86666 2.45188 4.86666Z"></path>
</svg>
