<svg class="svg" viewBox="0 0 24 28" xmlns="http://www.w3.org/2000/svg">
    <path d="M24 11.6906C21.6415 11.6961 19.3408 10.9721 17.423 9.62074V19.0454C17.4224 20.791 16.8804 22.4947 15.8695 23.9289C14.8586 25.363 13.427 26.4592 11.7662 27.0708C10.1054 27.6825 8.29441 27.7804 6.5755 27.3515C4.85659 26.9226 3.31166 25.9874 2.14728 24.6709C0.982908 23.3544 0.254588 21.7193 0.059711 19.9843C-0.135166 18.2493 0.212688 16.4971 1.05676 14.962C1.90083 13.4269 3.20089 12.182 4.7831 11.3939C6.36531 10.6057 8.15424 10.3118 9.91071 10.5515V15.2918C9.10695 15.0429 8.24385 15.0504 7.44468 15.3132C6.6455 15.576 5.95112 16.0807 5.46069 16.7551C4.97025 17.4295 4.70885 18.2393 4.71382 19.0687C4.71878 19.8981 4.98985 20.7048 5.48832 21.3735C5.98679 22.0422 6.68716 22.5387 7.48943 22.7922C8.29169 23.0458 9.15482 23.0432 9.95555 22.7851C10.7563 22.5269 11.4537 22.0263 11.9481 21.3547C12.4425 20.6831 12.7088 19.8749 12.7087 19.0454V0.621094H17.423C17.4198 1.01298 17.4531 1.40434 17.5227 1.79021C17.6865 2.65162 18.0271 3.47107 18.5237 4.19845C19.0203 4.92583 19.6624 5.54585 20.4107 6.02057C21.4754 6.71354 22.7236 7.0829 24 7.08264V11.6906Z"></path>
</svg>
