<svg class="svg" viewBox="0 0 27 22" xmlns="http://www.w3.org/2000/svg">
    <path d="M26.0276 3.32745C25.1012 3.73923 24.1043 4.01699 23.0582 4.14129C24.1263 3.50188 24.9452 2.48905 25.3314 1.28083C24.3324 1.87369 23.2265 2.30388 22.0484 2.53611C21.1057 1.53148 19.7619 0.90332 18.2749 0.90332C15.4201 0.90332 13.1054 3.21798 13.1054 6.07332C13.1054 6.47794 13.1509 6.87233 13.2394 7.25137C8.9426 7.03551 5.13275 4.97763 2.58278 1.84964C2.13776 2.61284 1.88302 3.50085 1.88302 4.44923C1.88302 6.24264 2.79558 7.8253 4.18284 8.75219C3.33575 8.72508 2.53828 8.49234 1.84107 8.10511C1.84056 8.12659 1.84056 8.14859 1.84056 8.17058C1.84056 10.675 3.62272 12.7641 5.98802 13.2398C5.55424 13.3575 5.09745 13.4209 4.62582 13.4209C4.29231 13.4209 3.96851 13.3887 3.6529 13.3278C4.31123 15.3816 6.22025 16.8768 8.48223 16.9182C6.71285 18.305 4.48413 19.1316 2.06154 19.1316C1.64464 19.1316 1.23286 19.107 0.828247 19.0589C3.11682 20.5265 5.83405 21.3818 8.75333 21.3818C18.2631 21.3818 23.4628 13.5043 23.4628 6.67232C23.4628 6.44827 23.4582 6.22474 23.4485 6.00273C24.4582 5.27534 25.335 4.36431 26.0276 3.32745Z"></path>
</svg>
